<svg width="274" height="40" viewBox="0 0 274 40" fill="none" xmlns="http://www.w3.org/2000/svg">
<path d="M66.8 28.0574L66.6429 26.8717C65.3838 27.9293 63.7707 28.4704 62.1286 28.386C57.8429 28.386 54.9857 24.986 54.9857 20.4145C54.9857 15.8431 57.8429 12.386 62.1286 12.386C62.9995 12.3153 63.8748 12.4505 64.6838 12.7805C65.4928 13.1106 66.2128 13.6263 66.7857 14.286V5.47168H71.6714V28.0574H66.8ZM60.0286 20.386C60.009 20.8417 60.0829 21.2966 60.2458 21.7227C60.4086 22.1487 60.6569 22.537 60.9754 22.8635C61.2939 23.19 61.6758 23.4479 62.0977 23.6213C62.5196 23.7947 62.9725 23.8799 63.4286 23.8717C63.8768 23.8726 64.3205 23.7815 64.7321 23.6038C65.1436 23.4262 65.5143 23.1659 65.821 22.839C66.1278 22.5122 66.3641 22.1258 66.5153 21.7038C66.6665 21.2818 66.7294 20.8333 66.7 20.386C66.7337 19.9377 66.6738 19.4874 66.5242 19.0635C66.3746 18.6396 66.1385 18.2514 65.8309 17.9237C65.5232 17.5959 65.1508 17.3357 64.7373 17.1595C64.3237 16.9833 63.8781 16.895 63.4286 16.9003C62.9702 16.8834 62.5134 16.9628 62.0876 17.1331C61.6617 17.3035 61.2762 17.5612 60.956 17.8895C60.6357 18.2178 60.3877 18.6096 60.228 19.0396C60.0683 19.4695 60.0003 19.9282 60.0286 20.386Z" fill="#1A2C4F"/>
<path d="M74.4571 7.98561C74.4388 7.61805 74.4975 7.25072 74.6295 6.90716C74.7614 6.5636 74.9636 6.25137 75.2231 5.99047C75.4827 5.72958 75.7938 5.52576 76.1367 5.39208C76.4796 5.25841 76.8466 5.19781 77.2143 5.21418C77.5837 5.19592 77.9529 5.25499 78.2982 5.38762C78.6435 5.52024 78.9573 5.7235 79.2195 5.98437C79.4817 6.24525 79.6866 6.558 79.821 6.90261C79.9554 7.24721 80.0163 7.61608 80 7.98561C80.0143 8.35396 79.9518 8.72126 79.8165 9.06416C79.6812 9.40705 79.476 9.71805 79.214 9.97736C78.952 10.2367 78.6389 10.4386 78.2946 10.5704C77.9504 10.7022 77.5825 10.7609 77.2143 10.7427C76.8479 10.759 76.4821 10.6988 76.1403 10.5659C75.7984 10.4331 75.4879 10.2306 75.2286 9.97126C74.9693 9.71193 74.7668 9.40146 74.6339 9.05961C74.5011 8.71775 74.4409 8.352 74.4571 7.98561ZM79.7714 28.057H74.7285V12.6999H79.7714V28.057Z" fill="#1A2C4F"/>
<path d="M89.3 28.3856C85.0142 28.3856 82.1571 24.9856 82.1571 20.4141C82.1571 15.8427 85.0142 12.3856 89.3 12.3856C90.1711 12.3126 91.0471 12.4467 91.8565 12.7769C92.6658 13.1071 93.3856 13.6241 93.9571 14.2856L94.1142 12.657H98.8428V27.8427C98.8428 32.9141 93.8714 34.7856 89.5714 34.7856C87.4891 34.8015 85.4279 34.3678 83.5285 33.5141L84.0143 29.3427C85.6291 30.037 87.3709 30.3873 89.1285 30.3713C90.8857 30.3713 93.8143 29.857 93.8143 27.5141V26.6856C93.2313 27.2809 92.5251 27.7416 91.7453 28.0353C90.9655 28.3289 90.1309 28.4485 89.3 28.3856ZM87.2143 20.3856C87.1948 20.8401 87.2683 21.2937 87.4302 21.7188C87.5922 22.1439 87.8392 22.5315 88.1561 22.8578C88.4731 23.1842 88.8533 23.4423 89.2735 23.6166C89.6937 23.7909 90.1451 23.8775 90.6 23.8713C91.0482 23.8722 91.4919 23.7811 91.9034 23.6034C92.315 23.4258 92.6856 23.1655 92.9924 22.8386C93.2992 22.5118 93.5355 22.1254 93.6867 21.7034C93.8379 21.2814 93.9008 20.8328 93.8714 20.3856C93.9051 19.9373 93.8452 19.4869 93.6956 19.0631C93.546 18.6392 93.3099 18.251 93.0022 17.9233C92.6946 17.5955 92.3222 17.3353 91.9087 17.1591C91.4951 16.9829 91.0495 16.8946 90.6 16.8998C90.1428 16.8851 89.6876 16.9659 89.2634 17.1372C88.8393 17.3085 88.4556 17.5664 88.1369 17.8945C87.8181 18.2227 87.5715 18.6137 87.4126 19.0427C87.2537 19.4716 87.1862 19.929 87.2143 20.3856Z" fill="#1A2C4F"/>
<path d="M101.614 7.98561C101.596 7.61805 101.655 7.25072 101.787 6.90716C101.919 6.5636 102.121 6.25137 102.38 5.99047C102.64 5.72958 102.951 5.52576 103.294 5.39208C103.637 5.25841 104.004 5.19781 104.371 5.21418C104.741 5.19592 105.11 5.25499 105.455 5.38762C105.801 5.52024 106.114 5.7235 106.377 5.98437C106.639 6.24525 106.844 6.558 106.978 6.90261C107.113 7.24721 107.174 7.61608 107.157 7.98561C107.171 8.35396 107.109 8.72126 106.974 9.06416C106.838 9.40705 106.633 9.71805 106.371 9.97736C106.109 10.2367 105.796 10.4386 105.452 10.5704C105.108 10.7022 104.74 10.7609 104.371 10.7427C104.005 10.759 103.639 10.6988 103.297 10.5659C102.956 10.4331 102.645 10.2306 102.386 9.97126C102.126 9.71193 101.924 9.40146 101.791 9.05961C101.658 8.71775 101.598 8.352 101.614 7.98561ZM106.914 28.057H101.871V12.6999H106.914V28.057Z" fill="#1A2C4F"/>
<path d="M116.329 16.8142V21.7714C116.329 24.3856 118.657 24.1571 121.086 23.5856L121.443 27.6714C120.129 28.129 118.749 28.3702 117.357 28.3856C113.843 28.3856 111.3 26.6856 111.3 22.5856V16.8714H108.843V12.6999H111.3V7.78564H116.171V12.6999H120.457V16.8142H116.329Z" fill="#1A2C4F"/>
<path d="M134.214 28.0571L134.057 26.4428C133.5 27.0897 132.802 27.601 132.017 27.9377C131.233 28.2743 130.381 28.4276 129.529 28.3857C125.429 28.3857 122.386 24.9857 122.386 20.4C122.386 15.8143 125.386 12.3857 129.529 12.3857C130.377 12.3458 131.224 12.4957 132.007 12.8244C132.791 13.1531 133.491 13.6523 134.057 14.2857L134.214 12.6571H139.1V28.0571H134.214ZM127.414 20.4C127.378 20.8543 127.438 21.3112 127.589 21.7412C127.74 22.1713 127.979 22.565 128.291 22.8973C128.603 23.2295 128.981 23.4928 129.401 23.6704C129.821 23.848 130.273 23.9359 130.729 23.9285C131.186 23.9379 131.639 23.8515 132.061 23.6748C132.482 23.4981 132.862 23.2351 133.176 22.9026C133.489 22.5702 133.73 22.1757 133.882 21.7447C134.033 21.3136 134.093 20.8556 134.057 20.4C134.093 19.9456 134.034 19.4888 133.883 19.0587C133.732 18.6287 133.492 18.2349 133.18 17.9027C132.868 17.5705 132.49 17.3071 132.071 17.1295C131.651 16.9519 131.199 16.864 130.743 16.8714C130.286 16.862 129.832 16.9484 129.411 17.1251C128.989 17.3018 128.609 17.5649 128.296 17.8973C127.982 18.2297 127.742 18.6242 127.59 19.0553C127.438 19.4863 127.378 19.9444 127.414 20.4Z" fill="#1A2C4F"/>
<path d="M147.171 28.0573H142.129V5.54297H147.171V28.0573Z" fill="#1A2C4F"/>
<path d="M157.571 34.4572V12.7H162.3L162.471 14.3286C163.036 13.6595 163.751 13.1344 164.558 12.7966C165.366 12.4587 166.242 12.3179 167.114 12.3857C171.4 12.3857 174.257 15.8143 174.257 20.4143C174.257 25.0143 171.4 28.3857 167.114 28.3857C165.491 28.4713 163.891 27.9636 162.614 26.9572V34.4857L157.571 34.4572ZM162.543 20.3857C162.513 20.8342 162.577 21.284 162.729 21.7069C162.881 22.1299 163.118 22.517 163.427 22.844C163.735 23.1711 164.107 23.4311 164.521 23.6079C164.934 23.7847 165.379 23.8744 165.829 23.8714C166.283 23.8777 166.735 23.791 167.155 23.6168C167.575 23.4425 167.955 23.1843 168.272 22.858C168.589 22.5317 168.836 22.1441 168.998 21.719C169.16 21.2939 169.234 20.8402 169.214 20.3857C169.242 19.9292 169.175 19.4718 169.016 19.0428C168.857 18.6139 168.61 18.2228 168.292 17.8947C167.973 17.5666 167.589 17.3086 167.165 17.1374C166.741 16.9661 166.286 16.8852 165.829 16.9C165.378 16.895 164.932 16.9832 164.518 17.1593C164.104 17.3353 163.731 17.5953 163.422 17.9228C163.113 18.2503 162.876 18.6383 162.724 19.0622C162.573 19.4861 162.511 19.9367 162.543 20.3857Z" fill="#1A2C4F"/>
<path d="M191.443 12.6998V21.6427C191.443 25.557 188.457 28.3855 183.914 28.3855C179.371 28.3855 176.543 25.5284 176.543 21.7427V12.6998H181.571V21.2713C181.546 21.5942 181.587 21.9189 181.693 22.225C181.8 22.531 181.968 22.8117 182.188 23.0493C182.409 23.2869 182.676 23.4763 182.973 23.6055C183.27 23.7347 183.59 23.8008 183.914 23.7998C184.252 23.8214 184.59 23.7701 184.906 23.6494C185.222 23.5286 185.509 23.3413 185.746 23.1C185.983 22.8588 186.165 22.5693 186.281 22.2513C186.396 21.9333 186.442 21.5942 186.414 21.257V12.6855L191.443 12.6998Z" fill="#1A2C4F"/>
<path d="M203.271 12.3857C203.907 12.396 204.538 12.502 205.143 12.7L204.829 17.1428C204.208 16.9288 203.556 16.8178 202.9 16.8143C201 16.8143 199.386 17.8571 199.386 20.7143V28.0571H194.343V12.7H199.086L199.257 14.8C199.62 14.0514 200.192 13.4246 200.905 12.9959C201.618 12.5672 202.44 12.3552 203.271 12.3857Z" fill="#1A2C4F"/>
<path d="M206.914 34.457V12.6998H211.643L211.771 14.2856C212.34 13.6181 213.058 13.0943 213.867 12.7567C214.677 12.4191 215.554 12.2772 216.429 12.3427C220.714 12.3427 223.571 15.7713 223.571 20.3713C223.571 24.9713 220.714 28.3427 216.429 28.3427C214.801 28.4253 213.198 27.9181 211.914 26.9141V34.4427L206.914 34.457ZM211.857 20.3856C211.828 20.8329 211.891 21.2814 212.042 21.7034C212.193 22.1254 212.429 22.5118 212.736 22.8386C213.043 23.1655 213.414 23.4258 213.825 23.6034C214.237 23.7811 214.68 23.8722 215.129 23.8713C215.585 23.8795 216.038 23.7943 216.459 23.6209C216.881 23.4475 217.263 23.1896 217.582 22.8631C217.9 22.5366 218.149 22.1483 218.311 21.7223C218.474 21.2962 218.548 20.8413 218.529 20.3856C218.557 19.9278 218.489 19.4691 218.329 19.0392C218.169 18.6092 217.921 18.2174 217.601 17.8891C217.281 17.5608 216.895 17.3031 216.47 17.1327C216.044 16.9624 215.587 16.883 215.129 16.8998C214.679 16.8946 214.233 16.9829 213.82 17.1591C213.406 17.3353 213.034 17.5955 212.726 17.9233C212.419 18.251 212.183 18.6392 212.033 19.0631C211.883 19.487 211.823 19.9373 211.857 20.3856Z" fill="#1A2C4F"/>
<path d="M241.8 20.3854C241.813 21.4614 241.606 22.5287 241.192 23.522C240.778 24.5153 240.166 25.4138 239.393 26.1626C238.62 26.9114 237.703 27.4947 236.697 27.8769C235.691 28.259 234.618 28.4321 233.543 28.3854C232.468 28.43 231.396 28.2555 230.391 27.8726C229.386 27.4897 228.469 26.9063 227.697 26.1579C226.925 25.4096 226.312 24.5119 225.898 23.5195C225.483 22.5272 225.275 21.4608 225.286 20.3854C225.275 19.31 225.483 18.2436 225.898 17.2512C226.312 16.2588 226.925 15.3612 227.697 14.6128C228.469 13.8645 229.386 13.2811 230.391 12.8981C231.396 12.5152 232.468 12.3408 233.543 12.3854C234.618 12.3387 235.691 12.5117 236.697 12.8939C237.703 13.2761 238.62 13.8594 239.393 14.6082C240.166 15.3569 240.778 16.2554 241.192 17.2488C241.606 18.2421 241.813 19.3094 241.8 20.3854ZM230.286 20.3854C230.248 20.8354 230.304 21.2883 230.451 21.7153C230.598 22.1424 230.832 22.5343 231.138 22.8661C231.444 23.1979 231.816 23.4624 232.23 23.6428C232.644 23.8232 233.091 23.9155 233.543 23.914C233.994 23.9155 234.441 23.8232 234.855 23.6428C235.269 23.4624 235.641 23.1979 235.948 22.8661C236.254 22.5343 236.488 22.1424 236.635 21.7153C236.781 21.2883 236.838 20.8354 236.8 20.3854C236.84 19.9343 236.785 19.4798 236.639 19.051C236.493 18.6223 236.26 18.2286 235.953 17.8952C235.647 17.5618 235.274 17.296 234.859 17.1148C234.444 16.9335 233.996 16.8408 233.543 16.8425C233.09 16.8408 232.642 16.9335 232.227 17.1148C231.812 17.296 231.439 17.5618 231.133 17.8952C230.826 18.2286 230.592 18.6223 230.447 19.051C230.301 19.4798 230.246 19.9343 230.286 20.3854Z" fill="#1A2C4F"/>
<path d="M249.771 28.3858C247.722 28.4282 245.683 28.0691 243.771 27.3287L244.271 23.343C245.897 23.9528 247.609 24.3 249.343 24.3716C251.014 24.3716 251.657 24.1287 251.657 23.4716C251.657 22.8144 251.2 22.6573 249.6 22.4001L248.171 22.1716C244.929 21.6858 243.486 20.2287 243.486 17.5001C243.486 14.3858 246.243 12.3858 250.543 12.3858C252.339 12.3542 254.123 12.6896 255.786 13.3716L255.486 17.3001C254 16.8063 252.451 16.532 250.886 16.4858C249.171 16.4858 248.357 16.8001 248.357 17.4716C248.357 18.143 248.986 18.3001 250.729 18.5716L252.157 18.8144C255.114 19.3001 256.443 20.743 256.443 23.3573C256.486 26.4287 253.871 28.3858 249.771 28.3858Z" fill="#1A2C4F"/>
<path d="M272.943 27.0001C271.182 27.9332 269.221 28.4235 267.229 28.4287C261.514 28.4287 258.129 25.2573 258.129 20.4287C258.07 19.3737 258.233 18.3181 258.606 17.3296C258.979 16.3411 259.554 15.4414 260.295 14.6883C261.037 13.9351 261.927 13.3451 262.909 12.956C263.891 12.5669 264.944 12.3873 266 12.4287C270.443 12.4287 274.386 15.3573 273.271 21.7287H263.029C263.286 23.5001 265.2 24.1715 267.314 24.1715C269.033 24.1993 270.741 23.8937 272.343 23.2715L272.943 27.0001ZM268.743 18.7144C268.727 18.3812 268.644 18.0547 268.498 17.7547C268.351 17.4548 268.146 17.1878 267.893 16.9699C267.641 16.7521 267.346 16.5879 267.028 16.4875C266.71 16.3871 266.375 16.3525 266.043 16.3858C265.335 16.3005 264.623 16.4969 264.059 16.9326C263.495 17.3683 263.125 18.0083 263.029 18.7144H268.743Z" fill="#1A2C4F"/>
<path d="M25.4857 39.9999H11V25.5142C11.0038 21.6722 12.5307 17.9884 15.2461 15.2703C17.9614 12.5523 21.6437 11.0217 25.4857 11.0142C29.3327 11.0142 33.0223 12.5414 35.7438 15.2602C38.4653 17.9791 39.9962 21.6672 40 25.5142C39.9981 27.4183 39.6212 29.3035 38.8908 31.062C38.1603 32.8205 37.0907 34.4179 35.743 35.763C34.3952 37.1081 32.7956 38.1746 31.0357 38.9016C29.2758 39.6286 27.3899 40.0017 25.4857 39.9999Z" fill="#73D3D0"/>
<path d="M14.5 28.9857C10.6555 28.9819 6.96958 27.453 4.25112 24.7346C1.53266 22.0161 0.00378208 18.3302 0 14.4857V0H14.5C18.3407 0.00378207 22.023 1.53117 24.7388 4.24694C27.4545 6.96272 28.9819 10.645 28.9857 14.4857C28.9819 18.3277 27.455 22.0115 24.7396 24.7295C22.0243 27.4476 18.342 28.9782 14.5 28.9857Z" fill="#329A97"/>
<path d="M11.0286 25.5142V28.5713C12.1638 28.8573 13.3293 29.006 14.5 29.0142C18.3469 29.0066 22.0335 27.4721 24.7497 24.7479C27.4659 22.0237 28.9895 18.3325 28.9857 14.4856C28.9775 13.4574 28.8626 12.4329 28.6429 11.4284C27.6093 11.1724 26.5503 11.0335 25.4857 11.0142C21.6487 11.0293 17.9737 12.5632 15.2645 15.2804C12.5553 17.9976 11.0323 21.6771 11.0286 25.5142Z" fill="#38AEAA"/>
</svg>
